<?xml version="1.0" encoding="UTF-8"?>
<svg width="174px" height="79px" viewBox="0 0 174 79" version="1.1" xmlns="http://www.w3.org/2000/svg" xmlns:xlink="http://www.w3.org/1999/xlink">
    <!-- Generator: Sketch 44.1 (41455) - http://www.bohemiancoding.com/sketch -->
    <title>Logo</title>
    <desc>Created with Sketch.</desc>
    <defs>
        <polygon id="path-1" points="0.120637961 0.039807393 44.1528418 0.039807393 44.1528418 25.4687456 0.120637961 25.4687456 0.120637961 0.039807393"></polygon>
        <polygon id="path-3" points="0 78.9601926 173.932571 78.9601926 173.932571 0.153696498 0 0.153696498"></polygon>
    </defs>
    <g id="Page-1" stroke="none" stroke-width="1" fill="none" fill-rule="evenodd">
        <g id="Onepager" transform="translate(-631.000000, -51.000000)">
            <g id="Header" transform="translate(62.000000, 22.000000)">
                <g id="Logo" transform="translate(569.000000, 29.000000)">
                    <path d="M106.661664,31.2307442 C106.862574,31.2202928 107.079233,31.2233667 107.295433,31.2301294 C107.282743,31.2634815 107.270511,31.2937597 107.257973,31.328034 C106.988869,32.0451819 106.760131,32.1759776 106.489346,32.8500905 C106.211068,32.742964 105.890131,32.7228298 105.611089,32.7277481 C104.491251,32.7474212 104.758825,33.2074348 102.866231,33.2406333 C102.859351,33.240787 102.854152,33.2430924 102.847272,33.2433998 C102.83611,33.2424776 102.826019,33.2380204 102.814398,33.2381741 C102.015344,33.2523142 101.808012,33.3645126 101.423774,33.3711216 C101.034491,33.3780379 99.9438569,33.2647636 99.603349,33.4064718 C99.2652875,33.5515613 96.8745459,33.2882792 95.8813086,33.4378259 C95.387748,33.5177481 94.6922067,33.577536 94.0611891,33.48332 C93.4300186,33.3892578 92.4133877,33.224034 91.8927638,33.4027831 C91.3722928,33.5849134 90.8949395,33.4203045 90.3449589,33.3960204 C89.7925318,33.3718901 89.3509571,33.4880846 88.70098,33.4994582 C88.6866074,33.4999193 88.6742225,33.5046839 88.6606144,33.5063745 C88.6424193,33.5033006 88.6249888,33.4974601 88.6054176,33.4977675 C88.0175178,33.5080652 87.7829694,33.6715982 87.3602014,33.5398804 C86.9375863,33.4116975 86.1772155,33.7539796 85.6789149,33.7287733 C85.1806144,33.7035671 84.8309325,33.6182656 84.1827902,33.7212422 C83.6630837,33.8050068 82.9155564,33.546643 82.1571733,33.6955749 C81.3989431,33.8480418 80.0821698,33.6302539 79.7159747,33.6367091 C79.3499325,33.6431644 77.6056513,33.7721158 77.1859413,33.8168414 C76.7685248,33.8580321 75.3398288,33.730464 74.5663086,33.7439893 C74.5377163,33.7444504 74.5129466,33.7515204 74.4868007,33.756285 C74.4698288,33.7544407 74.4545388,33.7493687 74.4366496,33.7496761 C73.8463033,33.7601274 72.4812137,33.9061391 71.7719114,33.9185885 C71.3673385,33.9256586 70.371349,33.8718648 69.8742717,33.9620846 C69.2412664,34.077357 68.7891417,34.0811994 68.4218763,34.0453881 C68.2377849,33.6609932 68.026936,33.2406333 67.6631873,32.7388142 C67.3480608,32.3000107 67.2352207,31.8547519 67.1732963,31.4236333 C67.1702383,31.4176391 67.1680977,31.4116449 67.1651926,31.4058045 C67.440871,31.3473998 67.8124176,31.305287 68.379523,31.305287 C68.3859448,31.305287 68.3916021,31.3032889 68.3983297,31.3028278 C68.4091856,31.3042111 68.4195828,31.308822 68.4310503,31.308822 C69.2307163,31.308822 69.4395775,31.2001586 69.8238148,31.2001586 C70.2134035,31.2001586 71.3018974,31.3324912 71.6448517,31.1967772 C71.9850538,31.0578356 74.3710555,31.3629232 75.3665863,31.2307442 C75.8619817,31.1595827 76.5582875,31.1120905 77.1874703,31.2172189 C77.816806,31.3221936 78.8303789,31.5053998 79.3542137,31.3357189 C79.8775898,31.162964 80.3521909,31.3357189 80.9015599,31.3698395 C81.4535283,31.4036527 81.8972436,31.295143 82.5472207,31.295143 C82.5617462,31.295143 82.574284,31.2903784 82.5883508,31.2888414 C82.6062401,31.2923765 82.623212,31.2985243 82.6427831,31.2985243 C83.230683,31.2985243 83.4681364,31.1392947 83.888458,31.2782364 C84.3090854,31.4137967 85.0748077,31.0848862 85.5724967,31.1186994 C86.0704914,31.15282 86.4186443,31.2444232 87.0686214,31.15282 C87.5898569,31.0779698 88.3324914,31.3492442 89.0933209,31.2138375 C89.8541504,31.0747422 91.1669483,31.3154309 91.5334492,31.3154309 C91.8994914,31.3154309 93.6454545,31.2172189 94.0660819,31.1798706 C94.4838042,31.1459037 95.9103596,31.2985243 96.6840327,31.2985243 C96.7124721,31.2985243 96.7372418,31.2919154 96.7630819,31.2877656 C96.7800538,31.2897636 96.7956496,31.295143 96.8133859,31.295143 C97.4041909,31.295143 98.7712682,31.173108 99.4808763,31.173108 C99.8852963,31.173108 100.880368,31.2444232 101.379128,31.162964 C102.929838,30.9084426 103.398781,31.295143 104.158082,31.3257286 C104.915089,31.3629232 106.004041,31.2680924 106.661664,31.2307442 Z" id="Fill-1" fill="#F9CD44"></path>
                    <path d="M106.935064,26.7497689 C106.313832,26.8310743 105.07412,26.7599128 104.570162,26.7599128 C103.685943,26.7599128 101.982791,26.8819479 101.247037,26.8819479 C101.22502,26.8819479 101.205754,26.8765685 101.184654,26.8744167 C101.152087,26.8787202 101.121354,26.8853292 101.085422,26.8853292 C100.121236,26.8853292 98.3439285,26.7327086 97.8236104,26.7665218 C97.2997756,26.8040237 95.1246227,26.9023895 94.6680638,26.9023895 C94.2118107,26.9023895 92.5760884,26.6613934 91.6281095,26.8006424 C90.6801306,26.9362027 89.7547808,26.6649284 89.1057211,26.7394712 C88.2958107,26.8310743 87.8620339,26.7394712 87.2417193,26.705658 C86.6217105,26.6716911 85.6671569,27.0006016 85.143475,26.8650412 C84.6193344,26.7259459 84.3240849,26.8853292 83.5913889,26.8853292 C83.566925,26.8853292 83.5456719,26.8791813 83.5228898,26.8756463 C83.505765,26.8771833 83.4903221,26.8819479 83.4724329,26.8819479 C82.6623696,26.8819479 82.1099425,26.9904576 81.4221991,26.9566444 C80.7375137,26.9226774 80.146403,26.7497689 79.4941323,26.9226774 C78.8420146,27.0922047 77.5789091,26.9091521 76.7948388,26.8040237 C76.0107685,26.6987416 75.143062,26.7463875 74.5262641,26.8173953 C73.285635,26.949728 70.3132624,26.6443331 69.8891183,26.7835821 C69.4616104,26.9192961 68.1055418,26.7871171 67.6205436,26.7871171 C67.1416613,26.7871171 66.8814258,26.8954732 65.8852835,26.8954732 C65.8719812,26.8954732 65.8605137,26.8911696 65.8475172,26.8900938 C65.8420128,26.8902475 65.8374258,26.8922455 65.8317685,26.8922455 C65.7291728,26.8922455 65.6354452,26.8940899 65.5450814,26.8968564 C65.7427808,27.7266638 65.9901728,28.5369518 66.2802237,29.3269518 C66.6141569,29.4714265 67.0042044,29.6672358 68.3455946,29.6672358 C68.3699056,29.6672358 68.3913116,29.67323 68.4139408,29.6763039 C68.4472729,29.6672358 68.4815225,29.6603195 68.5188301,29.6603195 C69.2536666,29.6603195 70.8555981,29.9555704 71.2759197,29.9214498 C71.6963942,29.8876366 72.8572097,29.5756327 73.2256982,29.5756327 C73.5920462,29.5756327 75.3666016,30.0573175 76.1298775,29.9214498 C76.8882606,29.7825082 77.1049197,29.857051 77.631048,29.857051 C78.1548828,29.857051 78.9877281,29.9555704 79.4857228,29.9929187 C79.9860111,30.0265782 80.4323257,29.5925393 81.0849021,29.7079654 C81.7373257,29.8267728 82.0908301,29.6603195 82.5394381,29.6603195 C82.5606912,29.6603195 82.579345,29.6663136 82.599222,29.6690802 C82.6027387,29.6689265 82.6054909,29.6672358 82.6091605,29.6672358 C83.1661745,29.6672358 83.6407756,29.6909051 84.1902975,29.7282533 C84.742113,29.7620665 85.4128845,29.7892708 86.0085822,29.7892708 C86.5503063,29.7892708 87.3602167,29.5893117 87.9895524,29.6944401 C88.6187351,29.7960335 89.5318529,29.8402981 89.8978951,29.857051 C90.3570533,29.8774926 91.3346947,29.8300004 91.7550163,29.9214498 C92.2915418,30.0368759 93.2227018,29.8673486 93.5629039,29.7282533 C93.9058582,29.5893117 94.1407123,29.7825082 94.8838054,29.7486949 C95.3243098,29.7282533 96.02612,29.6603195 96.684048,29.6603195 C96.7176859,29.6603195 96.7484188,29.6672358 96.7789988,29.6753817 C96.813707,29.6672358 96.8491798,29.6603195 96.8880163,29.6603195 C97.6474698,29.6603195 98.8854996,29.8808739 99.1879355,29.8808739 C99.490983,29.8808739 100.505932,29.7554576 100.987261,29.7892708 C101.466143,29.8267728 101.627452,29.9555704 102.435986,29.9893837 C103.446043,30.0336482 104.108558,29.87073 104.155498,29.850442 C104.299377,29.7926521 104.788503,29.6300412 105.468143,29.6807611 C106.376368,29.7486949 106.649447,29.5925393 107.053714,29.6603195 C107.469602,29.778051 107.660421,29.7605296 107.860108,29.7344012 C107.914693,29.5464304 107.958575,29.3535412 107.986403,29.1420549 C108.086858,28.3084051 108.540818,27.8119654 108.674299,27.0630023 C108.683932,27.0175082 108.68225,26.9761638 108.683932,26.9334362 C108.687449,26.9200646 108.694941,26.9094595 108.697846,26.8953195 C108.71176,26.8252339 108.720628,26.7596054 108.733166,26.6907494 C108.279053,26.6495588 107.718828,26.6466385 106.935064,26.7497689" id="Fill-3" fill="#F9CD44"></path>
                    <g id="Group-7" transform="translate(64.829525, 0.113889)">
                        <mask id="mask-2" fill="white">
                            <use xlink:href="#path-1"></use>
                        </mask>
                        <g id="Clip-6"></g>
                        <path d="M0.968467487,25.1400286 C0.992625659,25.1400286 1.01372583,25.1460228 1.03635501,25.1490967 C1.07717926,25.1401823 1.11922671,25.1334196 1.16494376,25.1334196 C2.08081371,25.1334196 4.07630931,25.4282095 4.59999121,25.3943963 C5.12367311,25.3605831 6.57010545,25.0485792 7.02956942,25.0485792 C7.4858225,25.0485792 9.69660105,25.5301103 10.6477909,25.3943963 C11.592406,25.2554547 11.86258,25.3299975 12.5179086,25.3299975 C13.1704851,25.3299975 14.2083691,25.4282095 14.8286837,25.4655578 C15.4519033,25.4996784 16.0078471,25.0654858 16.8209684,25.1807582 C17.6339367,25.2994119 18.0741353,25.1334196 18.63329,25.1334196 C18.6597417,25.1334196 18.6825237,25.1392601 18.7074464,25.1420267 C18.7117276,25.141873 18.7155501,25.1400286 18.7199842,25.1400286 C19.4141494,25.1400286 20.0055659,25.1638516 20.6897926,25.2011998 C21.3773831,25.235013 22.2129807,25.2622173 22.9554622,25.2622173 C23.6300562,25.2622173 24.6391951,25.0619508 25.4231125,25.1672329 C26.2071828,25.26898 27.3446046,25.3130909 27.8013163,25.3299975 C28.3733146,25.3502854 29.5911617,25.3029469 30.1146907,25.3943963 C30.7834745,25.5096687 31.9433726,25.3401414 32.3675167,25.2011998 C32.7948717,25.0619508 33.0872162,25.2554547 34.0127188,25.2214877 C34.5620879,25.2011998 35.4362162,25.1334196 36.2559121,25.1334196 C36.2975009,25.1334196 36.3361845,25.1401823 36.3742566,25.1483282 C36.4175272,25.1401823 36.462174,25.1334196 36.5101845,25.1334196 C37.4561757,25.1334196 38.9987821,25.3538204 39.375833,25.3538204 C39.7530369,25.3538204 41.0173656,25.2282504 41.6170387,25.2622173 C42.2138067,25.2994119 42.4144112,25.4282095 43.4224798,25.4623302 C43.6545817,25.4704761 43.8660422,25.4698613 44.0663409,25.4660189 C44.1163392,24.9852562 44.1423322,24.5061842 44.1486011,23.9914547 C44.1661845,23.0147134 44.1282654,21.8340169 44.0501336,20.788266 C43.9788822,19.837192 44.0649649,18.3597076 43.6539701,17.3059644 C43.2480211,16.251299 42.6585923,14.7446123 42.3890299,14.1511901 C42.0526503,13.4069916 41.3262232,11.8063963 40.819819,11.2288049 C40.1759578,10.4907543 39.3879121,8.98545078 39.1418963,8.36282626 C38.8928225,7.73651304 38.403696,7.5712893 37.4286538,6.56134961 C36.849775,5.96131848 35.9178506,5.021157 34.9261424,4.32091576 C34.8756854,4.28525817 34.8230879,4.26097412 34.7704903,4.23868813 C34.7244675,4.19257918 34.6761511,4.14708502 34.6165202,4.10650914 C34.1737223,3.80526401 33.586587,3.51616089 33.0025097,3.26179319 C29.7131757,1.22024261 25.8388471,0.0396998054 21.688993,0.0396998054 C16.7504815,0.0396998054 12.2027821,1.7119177 8.56682425,4.51856946 C7.97387873,4.823657 7.36854833,5.19775428 6.89593497,5.6357893 C6.62713708,5.88508502 6.41368893,6.12085545 6.24825132,6.34632821 C6.08097891,6.4606784 5.9173761,6.5970072 5.76264148,6.76161615 C5.27076274,7.28541381 5.14003339,7.5802037 4.97046749,8.02576984 C1.93999297,11.7596726 0.120637961,16.5261084 0.120637961,21.7207426 C0.120637961,22.8799216 0.218646749,24.0151239 0.393717047,25.1245053 C0.564811951,25.133727 0.751349736,25.1400286 0.968467487,25.1400286" id="Fill-5" fill="#F9CD44" mask="url(#mask-2)"></path>
                    </g>
                    <path d="M102.928156,34.8779621 C102.903998,34.8784232 102.882439,34.8727364 102.859657,34.8701235 C102.826936,34.8796527 102.792686,34.8870302 102.755532,34.8877986 C102.020542,34.9007091 100.414024,34.633892 99.9943139,34.674929 C99.5741452,34.7162733 98.4191399,35.0487189 98.0504984,35.0551741 C97.6844562,35.0616294 95.9016443,34.6111449 95.1408148,34.7602305 C94.3851838,34.9126975 94.1671487,34.8418434 93.6411733,34.8509115 C93.1174914,34.8601333 92.2829641,34.7763687 91.7843578,34.7479348 C91.2836109,34.7227286 90.8452471,35.164606 90.1908359,35.0607072 C89.5362717,34.953427 89.1858253,35.1258745 88.7370643,35.1338667 C88.7159641,35.1340204 88.6971575,35.1284874 88.6771276,35.1260282 C88.6737638,35.1263356 88.6707058,35.12818 88.6670362,35.12818 C88.1103279,35.1380165 87.6354211,35.1226469 87.0854404,35.0949815 C86.5328605,35.0706975 85.8620889,35.0553278 85.2663912,35.0657792 C84.7246671,35.0754621 83.9184264,35.2895613 83.2872559,35.195499 C82.6565441,35.1048181 81.7428148,35.0768453 81.3760081,35.0662403 C80.916697,35.0539446 79.9402787,35.1184971 79.5182752,35.0342714 C78.9799149,34.9285282 78.0519659,35.1143473 77.7139044,35.2592831 C77.3733965,35.4043726 77.1356373,35.2151722 76.3931557,35.2622033 C75.9526513,35.2903298 75.2523701,35.3704056 74.594748,35.3819329 C74.5615687,35.3827014 74.5302243,35.3762461 74.4994914,35.368715 C74.4647831,35.3774757 74.4293104,35.3850068 74.3904738,35.3856216 C73.631632,35.3988395 72.3897796,35.2001099 72.087038,35.2054893 C71.7842963,35.210715 70.7719466,35.3541138 70.2900063,35.3284465 C69.8572998,35.3024718 69.676878,35.1979582 69.0513649,35.1630691 C69.6057796,35.9641352 70.1614176,36.6122733 70.8448798,37.2966839 C71.6957673,37.2722461 72.7484826,37.2493453 73.0542822,37.2547247 C73.5261311,37.2630243 75.2121575,37.5335302 76.1943859,37.4116488 C77.1766144,37.2931488 78.12811,37.5811761 78.8004105,37.5184679 C79.6387603,37.4416196 80.0858394,37.5409076 80.7261838,37.5860944 C81.3665283,37.6312811 82.3590011,37.3197383 82.8979729,37.4648278 C83.4367919,37.6131449 83.7451909,37.4591411 84.5021979,37.4725126 C84.5275793,37.4731274 84.5494439,37.4795827 84.5729905,37.4835788 C84.590574,37.4823492 84.6067814,37.477892 84.6251293,37.4781994 C85.4622559,37.4928006 86.0351715,37.3942811 86.7453912,37.4406975 C87.4524,37.4869601 88.0604826,37.6706274 88.737523,37.5097072 C89.4148692,37.3520146 90.7169641,37.5578142 91.5250397,37.6772364 C92.3341856,37.7965049 93.2315547,37.7648434 93.870523,37.7049018 C95.1545757,37.5951625 98.2214404,37.9540438 98.6622506,37.822787 C99.1064246,37.6949115 100.505458,37.8516819 101.007275,37.8605963 C101.468574,37.8685885 101.743335,37.780213 102.612265,37.7826722 C102.768681,37.6635574 102.866843,37.592857 102.889931,37.580715 C103.137628,37.4442325 103.961606,36.9305788 104.661275,35.8762208 C104.826407,35.6272325 104.974567,35.4139018 105.109272,35.2248551 C104.737878,35.0866819 104.415565,34.8518337 102.928156,34.8779621" id="Fill-8" fill="#F9CD44"></path>
                    <path d="M92.9069483,42.6947969 C91.9280837,42.8166782 91.6502647,42.7373708 90.9729185,42.7255362 C90.2986302,42.7135479 89.2277199,42.5965848 88.5873754,42.547863 C87.94382,42.5026763 87.3614246,42.9265712 86.5233807,42.7966977 C85.6851838,42.6631354 85.2269431,42.8215965 84.6492875,42.8111451 C84.6216127,42.810684 84.5977603,42.8042288 84.5717673,42.8010012 C84.5674861,42.8013086 84.5639694,42.8026918 84.5595353,42.8026918 C83.8422822,42.7902424 83.2316004,42.7558144 82.5250503,42.7061704 C81.8146777,42.6596004 80.9517111,42.6173339 80.1843069,42.6039623 C79.7537409,42.5965848 79.1896935,42.6626743 78.6305388,42.6864973 C79.0354176,42.8377346 79.385864,42.9645342 79.6136847,43.0387696 C80.3844527,43.291293 82.0220098,43.8276938 82.7667849,43.840758 C83.7167515,43.8598163 85.2775529,44.2955459 85.8636179,44.5382327 C86.4535054,44.7812268 86.8767322,44.5307016 88.1818851,44.5188669 C88.9567814,44.5119506 90.2021504,44.4916626 91.3464527,44.2681879 C91.4048605,44.256507 91.4565406,44.2360654 91.5066917,44.2139331 C91.5696865,44.2130109 91.6335986,44.2100907 91.7014861,44.1956432 C92.7665863,43.9690946 94.2585828,43.2454914 95.0524387,42.866937 C94.278154,42.7445946 93.4190098,42.6333183 92.9069483,42.6947969" id="Fill-10" fill="#F9CD44"></path>
                    <path d="M99.1152163,39.1061988 C98.5730336,39.1304829 97.0733921,39.4165121 96.5981794,39.4080588 C96.1266364,39.3997591 93.849958,38.8781132 92.8642128,38.9964595 C91.885654,39.1184946 91.6081408,39.0390335 90.9304888,39.0270451 C90.2563534,39.0152105 89.1852902,38.8980938 88.5449457,38.8495257 C87.9010845,38.8043389 87.3191478,39.2282339 86.4806452,39.0982066 C85.6426012,38.9647981 85.1845134,39.1227981 84.6068578,39.1128078 C84.5790301,39.1125004 84.5553306,39.1060451 84.5296434,39.1028175 C84.5253622,39.1029712 84.5218455,39.1045082 84.5172585,39.1043545 C83.7996996,39.0917514 83.1891707,39.057477 82.4823148,39.0076794 C81.772248,38.961263 80.9089756,38.9191502 80.1418772,38.9054712 C79.4445011,38.8934829 78.3980547,39.0751521 77.5898262,38.95573 C76.7808332,38.8398428 75.6061039,38.7749829 75.1348666,38.7497767 C74.5439088,38.7190374 73.2844729,38.744551 72.7445837,38.6435724 C72.5921425,38.6154459 72.4126381,38.6025354 72.2238069,38.5980782 C72.646422,38.9740198 73.081422,39.344121 73.4954747,39.6779498 C73.9844483,40.0721813 74.5864149,40.6506949 75.2318051,41.1316113 C75.5950951,41.1471346 75.9467647,41.1459051 76.2369685,41.1099401 C77.2188912,40.9917475 78.1708455,41.2794673 78.843146,41.2167591 C79.6814958,41.1399109 80.1282691,41.2393525 80.7687664,41.2843856 C81.408958,41.3295724 82.4012779,41.0178759 82.9404026,41.1631191 C83.4792216,41.3115899 83.7874677,41.157586 84.5449334,41.1709576 C84.570009,41.1715724 84.5917207,41.1778739 84.6151144,41.18187 C84.6330037,41.1807942 84.6490582,41.1761833 84.667712,41.1764907 C85.5045327,41.1910918 86.077907,41.0927261 86.7878209,41.1391424 C87.4948297,41.1854051 88.1029123,41.3690724 88.7799527,41.2078447 C89.4572989,41.0503058 90.7592409,41.2562591 91.5677752,41.3755276 C92.3763095,41.4949498 93.2736786,41.4631346 93.9129527,41.403193 C94.9069545,41.3183525 96.9648332,41.5133934 98.0502691,41.5453623 C98.1857383,41.4709732 98.3092814,41.3976599 98.4112656,41.3271132 C99.12332,40.8285218 99.2749967,40.532656 100.399881,39.579584 C100.53168,39.4680004 100.657976,39.3616424 100.781824,39.2577436 C100.064418,39.173979 99.3916592,39.0937494 99.1152163,39.1061988" id="Fill-12" fill="#F9CD44"></path>
                    <polygon id="Fill-14" fill="#221F20" points="53.7575752 72.0900821 52.202584 72.0900821 48.8132536 75.6043525 48.8132536 72.0900821 47.6964733 72.0900821 47.6964733 78.8558019 48.8132536 78.8558019 48.8132536 77.1084265 49.963519 75.9391035 52.3238336 78.8558019 53.7733239 78.8558019 50.7555401 75.1374226"></polygon>
                    <mask id="mask-4" fill="white">
                        <use xlink:href="#path-3"></use>
                    </mask>
                    <g id="Clip-17"></g>
                    <polygon id="Fill-16" fill="#221F20" mask="url(#mask-4)" points="60.1884042 78.855679 61.3050316 78.855679 61.3050316 72.0899591 60.1884042 72.0899591"></polygon>
                    <polygon id="Fill-18" fill="#221F20" mask="url(#mask-4)" points="68.304862 73.1692621 70.4187021 73.1692621 70.4187021 78.8557251 71.5354824 78.8557251 71.5354824 73.1692621 73.6490167 73.1692621 73.6490167 72.0901589 68.304862 72.0901589"></polygon>
                    <path d="M85.5377425,77.0299798 C85.2580888,77.3107833 84.9695668,77.5271879 84.6798216,77.6724311 C84.4050606,77.810758 84.07021,77.881151 83.6855141,77.881151 C83.3709991,77.881151 83.0762083,77.8192113 82.8093981,77.6979447 C82.5398357,77.5745265 82.3029938,77.404077 82.105906,77.1910537 C81.9068304,76.976186 81.7468972,76.718437 81.629623,76.4242619 C81.5135721,76.13147 81.4542469,75.8114739 81.4542469,75.4555128 C81.4542469,75.1164584 81.5120431,74.7976918 81.6261063,74.5076665 C81.7400167,74.2171802 81.8985738,73.9606607 82.0973436,73.7459467 C82.2935141,73.5339992 82.5294385,73.3650868 82.7986951,73.2450498 C83.065964,73.1253202 83.3616722,73.0649175 83.6767988,73.0649175 C83.874804,73.0649175 84.0601186,73.0852054 84.2275439,73.1253202 C84.3972627,73.1662035 84.5561257,73.2215342 84.6992399,73.2893144 C84.8420483,73.3575556 84.9781292,73.4407054 85.1036599,73.5364584 C85.2374473,73.6386665 85.3677179,73.7504039 85.4906494,73.8690576 L85.729326,74.0988339 L86.5185949,73.2837813 L86.2679921,73.05047 C86.1028603,72.8963125 85.9305422,72.7544506 85.7554719,72.6279584 C85.5759675,72.4979311 85.379797,72.3834272 85.1718533,72.2865984 C84.9629921,72.1897696 84.7339482,72.1144584 84.48992,72.0625089 C84.2483383,72.0117891 83.9777056,71.9858144 83.6855141,71.9858144 C83.2012803,71.9858144 82.7473207,72.0789545 82.3370905,72.2629292 C81.9283893,72.4456743 81.570145,72.7001957 81.272449,73.0186549 C80.976435,73.3361918 80.741275,73.7095206 80.5736968,74.1291121 C80.405507,74.5499331 80.3201889,75.0025693 80.3201889,75.4902482 C80.3201889,75.9665537 80.4038251,76.4208805 80.5686511,76.8409331 C80.7339359,77.2623689 80.9683313,77.6349292 81.2664859,77.9475479 C81.5649464,78.2601665 81.9230378,78.5094623 82.3303629,78.6882113 C82.7418163,78.868651 83.1914947,78.9602541 83.6679306,78.9602541 C83.9576757,78.9602541 84.2307548,78.9308981 84.479217,78.8734156 C84.7270677,78.8157794 84.9613102,78.7341665 85.1761344,78.6311899 C85.3885123,78.5291354 85.5917162,78.4043339 85.7802417,78.2601665 C85.9586757,78.123223 86.1358866,77.9698339 86.3074402,77.8044564 L86.5554438,77.5643825 L85.7701503,76.7963611 L85.5377425,77.0299798 Z" id="Fill-19" fill="#221F20" mask="url(#mask-4)"></path>
                    <polygon id="Fill-20" fill="#221F20" mask="url(#mask-4)" points="97.5505313 74.9202494 94.3359654 74.9202494 94.3359654 72.0900821 93.219338 72.0900821 93.219338 78.8556482 94.3359654 78.8556482 94.3359654 75.9996599 97.5505313 75.9996599 97.5505313 78.8556482 98.6673116 78.8556482 98.6673116 72.0900821 97.5505313 72.0900821"></polygon>
                    <polygon id="Fill-21" fill="#221F20" mask="url(#mask-4)" points="107.503209 75.9905765 110.97694 75.9905765 110.97694 74.9119344 107.503209 74.9119344 107.503209 73.1693235 111.366682 73.1693235 111.366682 72.0900667 106.386582 72.0900667 106.386582 78.8557866 111.410564 78.8557866 111.410564 77.7762224 107.503209 77.7762224"></polygon>
                    <polygon id="Fill-22" fill="#221F20" mask="url(#mask-4)" points="123.382834 76.7670204 119.692597 72.090036 118.773975 72.090036 118.773975 78.8557558 119.87363 78.8557558 119.87363 74.0664193 123.650103 78.8557558 124.482184 78.8557558 124.482184 72.090036 123.382834 72.090036"></polygon>
                    <path d="M12.8350687,61.7040105 C12.1289773,62.3853471 11.4010213,62.9202109 10.6713833,63.2943082 C9.95978752,63.6587226 9.09315132,63.8436195 8.09593866,63.8436195 C7.29718998,63.8436195 6.54859244,63.6860805 5.86971722,63.3762284 C5.18701951,63.0640708 4.5861232,62.6323374 4.08400018,62.0924016 C3.58004236,61.5512362 3.18066801,60.9069405 2.89765044,60.1770358 C2.61356257,59.4463626 2.46968383,58.6429911 2.46968383,57.7898218 L2.46968383,57.7458646 C2.46968383,56.9071428 2.61356257,56.1113023 2.89765044,55.3804755 C3.18127961,54.649956 3.58050105,54.005814 4.08400018,53.4654171 C4.5855116,52.9267109 5.18549051,52.4988198 5.86696503,52.1941934 C6.54706344,51.8906428 7.29688418,51.7367926 8.09593866,51.7367926 C9.09192812,51.7367926 9.95336573,51.9247634 10.6568578,52.295172 C11.3819088,52.6772615 12.071487,53.1729327 12.7061742,53.7686603 L12.9500494,53.9975144 L14.5885239,52.2289288 L14.3521408,52.0002284 C13.9605643,51.6229035 13.5498754,51.2744735 13.1301654,50.9653899 C12.7000582,50.6493899 12.2275977,50.376886 11.7262392,50.1554093 C11.2253394,49.9343938 10.6741355,49.7599482 10.0876118,49.6368374 C9.50368735,49.5151097 8.84071371,49.45317 8.11780334,49.45317 C6.94796678,49.45317 5.85228664,49.6748004 4.86149578,50.1114521 C3.87208102,50.5473354 3.00697381,51.1530533 2.29063814,51.9120066 C1.57537276,52.6688082 1.00903181,53.5631681 0.606752373,54.5706486 C0.204320035,55.5785903 4.58699473e-05,56.6613821 4.58699473e-05,57.7898218 L4.58699473e-05,57.8340864 C4.58699473e-05,58.9772809 0.204320035,60.068065 0.606599473,61.0758529 C1.00933761,62.084563 1.57659596,62.9724677 2.29308453,63.7148218 C3.00942021,64.4587128 3.86627083,65.052135 4.83963111,65.4797187 C5.81604938,65.9091467 6.89674534,66.1266272 8.05190351,66.1266272 C8.77863638,66.1266272 9.44726731,66.056849 10.039907,65.9194444 C10.6339228,65.7812712 11.1965942,65.5874599 11.7118666,65.3433899 C12.2283622,65.0990125 12.7185591,64.8003802 13.1686961,64.4553315 C13.6134817,64.1147401 14.0442005,63.7275786 14.4487735,63.3056817 L14.6781232,63.06653 L13.068088,61.4789988 L12.8350687,61.7040105 Z" id="Fill-23" fill="#221F20" mask="url(#mask-4)"></path>
                    <path d="M30.2323624,59.5328938 L24.2451111,59.5328938 L27.2480636,52.7972984 L30.2323624,59.5328938 Z M26.2424415,49.6080961 L18.9261849,65.8619619 L21.4395522,65.8619619 L23.2647174,61.7719444 L31.2104626,61.7719444 L33.0137631,65.8619619 L35.6161181,65.8619619 L28.2997086,49.6080961 L26.2424415,49.6080961 Z" id="Fill-24" fill="#221F20" mask="url(#mask-4)"></path>
                    <polygon id="Fill-25" fill="#221F20" mask="url(#mask-4)" points="52.3869965 63.5782317 43.7229279 63.5782317 43.7229279 49.7181889 41.3194956 49.7181889 41.3194956 65.8618543 52.3869965 65.8618543"></polygon>
                    <polygon id="Fill-26" fill="#221F20" mask="url(#mask-4)" points="58.6032917 65.8618696 61.0067241 65.8618696 61.0067241 49.7182043 58.6032917 49.7182043"></polygon>
                    <polygon id="Fill-27" fill="#221F20" mask="url(#mask-4)" points="68.3668323 65.8619158 70.7702647 65.8619158 70.7702647 59.1195578 79.1045283 59.1195578 79.1045283 56.8803535 70.7702647 56.8803535 70.7702647 52.001873 80.094096 52.001873 80.094096 49.7182504 68.3668323 49.7182504"></polygon>
                    <path d="M93.8342093,63.8436041 C93.0054923,63.8436041 92.2344185,63.6825302 91.5423938,63.3648395 C90.8442533,63.0456119 90.2317366,62.6094212 89.7216627,62.0687169 C89.2112831,61.5280126 88.8091566,60.8840243 88.526139,60.1547344 C88.2420511,59.4245224 88.0980195,58.6288356 88.0980195,57.7898064 L88.0980195,57.7458492 C88.0980195,56.9074348 88.2420511,56.1162053 88.5255274,55.3926021 C88.8091566,54.6697675 89.2056258,54.0280846 89.7028561,53.485536 C90.1973341,52.9474446 90.8006768,52.5163259 91.4960652,52.2049368 C92.1888543,51.8946235 92.9608455,51.7367772 93.7903271,51.7367772 C94.617668,51.7367772 95.3887418,51.8978512 96.0818367,52.2150807 C96.7798244,52.5346158 97.3923411,52.9708064 97.902262,53.5110496 C98.4120301,54.0516002 98.8146153,54.6952811 99.0982445,55.4248784 C99.3821794,56.1572422 99.5262111,56.9526216 99.5262111,57.7898064 L99.5262111,57.834071 C99.5262111,58.6715632 99.3824852,59.4632539 99.0983974,60.1870107 C98.8146153,60.9112286 98.4184518,61.5529115 97.9215274,62.0940768 C97.4272023,62.632322 96.8241654,63.0629796 96.1284712,63.3749835 C95.4344589,63.6859115 94.6626206,63.8436041 93.8342093,63.8436041 M101.41223,54.5847733 C101.024171,53.583287 100.464557,52.6909251 99.7492919,51.9339698 C99.0334149,51.1759387 98.1652497,50.5666858 97.16819,50.122964 C96.1694483,49.6786274 95.0477752,49.4531547 93.8342093,49.4531547 C92.6198789,49.4531547 91.4936188,49.6824698 90.4876909,50.1347986 C89.4843622,50.5851294 88.6126803,51.1982247 87.8974149,51.9556411 C87.1816909,52.71275 86.6185608,53.6078784 86.2234677,54.6168959 C85.8288332,55.623608 85.6285344,56.6911839 85.6285344,57.7898064 L85.6285344,57.834071 C85.6285344,58.9325399 85.8248578,59.9958123 86.2118473,60.9954543 C86.6000599,61.9966333 87.1593675,62.8891488 87.8747858,63.6462578 C88.5908156,64.4042889 89.4588279,65.0136955 90.455429,65.4568025 C91.453712,65.9014465 92.5758438,66.1266119 93.7903271,66.1266119 C95.003893,66.1266119 96.1301531,65.8977578 97.1368455,65.4457364 C98.1392568,64.9954056 99.0107858,64.3826177 99.7274272,63.6242792 C100.442081,62.8674776 101.005211,61.9720418 101.401069,60.9633317 C101.787599,59.9764465 101.98744,58.9319251 101.995696,57.8577403 C102.010833,57.7987208 102.010833,57.7373959 101.995696,57.6783765 C101.987745,56.6046527 101.791422,55.5644348 101.41223,54.5847733" id="Fill-28" fill="#221F20" mask="url(#mask-4)"></path>
                    <path d="M110.923746,52.0019191 L115.352643,52.0019191 C116.520491,52.0019191 117.430857,52.2498315 118.058358,52.738279 C118.668581,53.2139696 118.965512,53.8611856 118.965512,54.7175825 L118.965512,54.7615397 C118.965512,55.2071058 118.877748,55.6057946 118.704512,55.9466934 C118.529595,56.2906661 118.282968,56.5873004 117.971358,56.8279891 C117.652103,57.0749794 117.265114,57.2683296 116.82094,57.4031214 C116.370955,57.540065 115.869444,57.6096895 115.330319,57.6096895 L110.923746,57.6096895 L110.923746,52.0019191 Z M122.253164,65.8619619 L117.439266,59.4249988 C117.872585,59.3171039 118.285414,59.1710922 118.671486,58.9880397 C119.216421,58.7295222 119.695762,58.395386 120.095136,57.993777 C120.498639,57.588172 120.815447,57.1044891 121.036999,56.5564074 C121.257022,56.0103237 121.369098,55.3844716 121.369098,54.6954502 L121.369098,54.6511856 C121.369098,53.9922887 121.257328,53.3778101 121.037458,52.824349 C120.816365,52.2691973 120.495428,51.7778296 120.084128,51.3642323 C119.569161,50.8459677 118.910621,50.4368276 118.126857,50.1477245 C117.352266,49.8626175 116.459331,49.7182965 115.472669,49.7182965 L108.520314,49.7182965 L108.520314,65.8619619 L110.923746,65.8619619 L110.923746,59.8490475 L114.821621,59.8490475 L119.285379,65.8619619 L122.253164,65.8619619 Z" id="Fill-29" fill="#221F20" mask="url(#mask-4)"></path>
                    <polygon id="Fill-30" fill="#221F20" mask="url(#mask-4)" points="139.262475 61.4862226 130.059893 49.7182965 127.937644 49.7182965 127.937644 65.8619619 130.297194 65.8619619 130.297194 53.8052401 139.641514 65.7343938 139.741663 65.8619619 141.622178 65.8619619 141.622178 49.7182965 139.262475 49.7182965"></polygon>
                    <polygon id="Fill-31" fill="#221F20" mask="url(#mask-4)" points="148.982225 65.8618696 151.385657 65.8618696 151.385657 49.7182043 148.982225 49.7182043"></polygon>
                    <path d="M168.54877,59.5328938 L162.561671,59.5328938 L165.564471,52.7972984 L168.54877,59.5328938 Z M166.616116,49.6080961 L164.558696,49.6080961 L157.242745,65.8619619 L159.755959,65.8619619 L161.58143,61.7719444 L169.52687,61.7719444 L171.33017,65.8619619 L173.932525,65.8619619 L166.616116,49.6080961 Z" id="Fill-32" fill="#221F20" mask="url(#mask-4)"></path>
                </g>
            </g>
        </g>
    </g>
</svg>