<?xml version="1.0" encoding="UTF-8"?>
<svg width="32px" height="32px" viewBox="0 0 32 32" version="1.1" xmlns="http://www.w3.org/2000/svg" xmlns:xlink="http://www.w3.org/1999/xlink">
    <!-- Generator: Sketch 44.1 (41455) - http://www.bohemiancoding.com/sketch -->
    <title>Logo</title>
    <desc>Created with Sketch.</desc>
    <defs>
        <polygon id="path-1" points="0.0857869947 0.0283074795 31.3975764 0.0283074795 31.3975764 18.111108 0.0857869947 18.111108 0.0857869947 0.0283074795"></polygon>
    </defs>
    <g id="Page-1" stroke="none" stroke-width="1" fill="none" fill-rule="evenodd">
        <g id="Header-scroll" transform="translate(-704.000000, -17.000000)">
            <g id="Logo">
                <g transform="translate(704.000000, 17.000000)">
                    <path d="M29.7472982,22.1275414 C29.8901678,22.1201093 30.0442365,22.1222952 30.197979,22.1271042 C30.1889545,22.1508213 30.1802562,22.1723524 30.1713404,22.1967253 C29.9799778,22.7066971 29.8173196,22.7997074 29.6247609,23.2790765 C29.4268746,23.2028977 29.1986529,23.18858 29.0002229,23.1920775 C28.2038934,23.2060673 28.3941688,23.5331881 27.0483241,23.5567958 C27.0434313,23.5569051 27.0397346,23.5585446 27.0348418,23.5587632 C27.0269046,23.5581074 27.0197285,23.5549378 27.0114651,23.5550471 C26.4432486,23.5651023 26.2958123,23.6448879 26.022577,23.6495875 C25.7457535,23.6545058 24.9701913,23.5739552 24.7280523,23.6747255 C24.487653,23.7779002 22.7875701,23.5906774 22.081268,23.6970217 C21.7302916,23.7538553 21.2356844,23.7963711 20.7869608,23.7293731 C20.3381285,23.6624844 19.6151909,23.544992 19.2449695,23.6721024 C18.8748568,23.8016173 18.5354056,23.684562 18.1443082,23.6672934 C17.7514712,23.650134 17.4374625,23.7327613 16.9752565,23.7408491 C16.965036,23.741177 16.956229,23.7445652 16.9465521,23.7457674 C16.9336134,23.7435815 16.9212183,23.7394283 16.907301,23.7396469 C16.4892389,23.7469696 16.322449,23.8632598 16.021814,23.7695938 C15.7212877,23.6784415 15.1805795,23.9218421 14.8262325,23.9039177 C14.4718855,23.8859933 14.2232228,23.8253344 13.7623215,23.8985622 C13.3927525,23.9581281 12.8611776,23.7744028 12.3218829,23.8803099 C11.7826969,23.9887308 10.8463248,23.8338594 10.5859194,23.8384498 C10.3256228,23.8430402 9.08524504,23.934739 8.78678458,23.9665439 C8.48995506,23.995835 7.47399349,23.9051199 6.92393467,23.9147379 C6.90360239,23.9150658 6.88598833,23.9200934 6.86739571,23.9234815 C6.85532682,23.92217 6.84445394,23.9185633 6.83173268,23.9187818 C6.41193092,23.9262139 5.44120052,24.0300444 4.93680778,24.0388974 C4.64911147,24.0439249 3.9408523,24.0056716 3.58737509,24.0698279 C3.13723801,24.1517994 2.81572705,24.1545318 2.55456056,24.129066 C2.42365113,23.8557185 2.27371417,23.5567958 2.01504844,23.1999467 C1.79095845,22.8879087 1.71071663,22.5712802 1.66668148,22.264707 C1.6645069,22.2604444 1.6629847,22.2561819 1.66091885,22.2520287 C1.85695681,22.2104965 2.12116771,22.1805496 2.52444269,22.1805496 C2.5290093,22.1805496 2.53303227,22.1791288 2.53781633,22.1788009 C2.54553607,22.1797845 2.55292963,22.1830634 2.56108429,22.1830634 C3.12973572,22.1830634 3.27825921,22.1057916 3.5514946,22.1057916 C3.82853549,22.1057916 4.60257556,22.1998949 4.84645418,22.1033871 C5.08837568,22.0045842 6.78508804,22.2215353 7.49302102,22.1275414 C7.84530221,22.0769377 8.34045301,22.0431654 8.78787187,22.1179234 C9.23539946,22.1925721 9.95616244,22.3228521 10.3286672,22.2021901 C10.7008457,22.0793422 11.0383398,22.2021901 11.4290023,22.2264536 C11.8215131,22.2504986 12.137044,22.1733361 12.59925,22.1733361 C12.6095792,22.1733361 12.618495,22.1699479 12.628498,22.168855 C12.6412193,22.1713688 12.6532882,22.1757406 12.6672054,22.1757406 C13.0852675,22.1757406 13.2541233,22.0625107 13.5530187,22.1613136 C13.8521315,22.2577121 14.3966452,22.0238201 14.7505573,22.0478651 C15.1046869,22.0721287 15.3522623,22.1372687 15.8144682,22.0721287 C16.1851246,22.0189019 16.7132202,22.211808 17.2542545,22.1155189 C17.7952889,22.0166067 18.728834,22.1877631 18.9894569,22.1877631 C19.2497535,22.1877631 20.4913273,22.1179234 20.7904401,22.0913646 C21.0874871,22.0672104 22.1019265,22.1757406 22.652094,22.1757406 C22.6723176,22.1757406 22.6899316,22.1710409 22.7083068,22.1680899 C22.7203757,22.1695108 22.731466,22.1733361 22.7440785,22.1733361 C23.1642065,22.1733361 24.1363504,22.0865556 24.6409606,22.0865556 C24.9285481,22.0865556 25.6361549,22.1372687 25.9908282,22.0793422 C27.0935553,21.8983492 27.4270264,22.1733361 27.9669735,22.1950859 C28.5052896,22.2215353 29.2796558,22.1541001 29.7472982,22.1275414 Z" id="Fill-1" fill="#F9CD44"></path>
                    <path d="M29.9417161,18.9410701 C29.4999512,18.9988873 28.6183783,18.9482835 28.2600083,18.9482835 C27.6312299,18.9482835 26.4201002,19.035064 25.8968974,19.035064 C25.8812404,19.035064 25.8675406,19.0312387 25.8525361,19.0297085 C25.8293768,19.0327688 25.8075223,19.0374685 25.7819711,19.0374685 C25.0963275,19.0374685 23.8324643,18.9289383 23.4624604,18.9529832 C23.0899556,18.9796513 21.5431802,19.0496003 21.2185161,19.0496003 C20.8940695,19.0496003 19.7308892,18.8782253 19.0567708,18.9772468 C18.3826525,19.0736452 17.724626,18.8807391 17.2630724,18.9337473 C16.6871362,18.9988873 16.3786727,18.9337473 15.9375601,18.9097023 C15.4966649,18.8855481 14.8178713,19.11944 14.4454752,19.0230415 C14.072753,18.9241293 13.8627978,19.0374685 13.3417696,19.0374685 C13.324373,19.0374685 13.3092597,19.0330967 13.2930591,19.0305829 C13.2808815,19.0316758 13.2698998,19.035064 13.2571786,19.035064 C12.6811336,19.035064 12.2882966,19.1122265 11.7992346,19.0881815 C11.3123472,19.0640273 10.8920018,18.9410701 10.4281649,19.0640273 C9.9644367,19.18458 9.06622838,19.0544093 8.50866728,18.9796513 C7.95110617,18.904784 7.33407044,18.9386656 6.89545861,18.98916 C6.01323342,19.0832632 3.89954624,18.8660935 3.59793265,18.965115 C3.29392703,19.0616228 2.32961162,18.9676288 1.98472398,18.9676288 C1.6441855,18.9676288 1.45912914,19.044682 0.750761242,19.044682 C0.741301839,19.044682 0.733147182,19.0416217 0.723905237,19.0408567 C0.719991002,19.0409659 0.716729139,19.0423868 0.712706175,19.0423868 C0.639749174,19.0423868 0.573098442,19.0436983 0.508839742,19.0456656 C0.649426034,19.6357509 0.825349174,20.2119557 1.03160764,20.7737334 C1.26907126,20.876471 1.54643834,21.0157132 2.50031578,21.0157132 C2.51760366,21.0157132 2.53282568,21.0199757 2.54891754,21.0221616 C2.57262041,21.0157132 2.59697565,21.0107949 2.62350547,21.0107949 C3.14605591,21.0107949 4.28520717,21.2207512 4.58410254,21.1964876 C4.88310664,21.1724426 5.70857542,20.9505732 5.97061174,20.9505732 C6.23112586,20.9505732 7.49303189,21.2931046 8.03580588,21.1964876 C8.57510055,21.0976847 8.72916921,21.1506929 9.10330489,21.1506929 C9.47580963,21.1506929 10.0680552,21.2207512 10.4221848,21.2473099 C10.7779453,21.2712456 11.0953246,20.9625957 11.5593789,21.0446765 C12.0233246,21.1291617 12.2747055,21.0107949 12.5937157,21.0107949 C12.608829,21.0107949 12.6220939,21.0150574 12.6362286,21.0170247 C12.6387294,21.0169155 12.6406865,21.0157132 12.643296,21.0157132 C13.0393949,21.0157132 13.376889,21.0325447 13.7676601,21.0591034 C14.1600622,21.0831484 14.6370553,21.1024937 15.0606626,21.1024937 C15.4458886,21.1024937 16.0218249,20.9603005 16.4693525,21.0350585 C16.9167713,21.1073027 17.5660995,21.1387797 17.8263962,21.1506929 C18.1529086,21.1652292 18.8481204,21.1314569 19.1470157,21.1964876 C19.528545,21.2785684 20.1907031,21.1580157 20.4326246,21.0591034 C20.6765032,20.9603005 20.8435106,21.0976847 21.3719324,21.0736397 C21.68518,21.0591034 22.184245,21.0107949 22.6521049,21.0107949 C22.6760252,21.0107949 22.6978797,21.0157132 22.7196254,21.0215059 C22.7443069,21.0157132 22.769532,21.0107949 22.7971491,21.0107949 C23.3372048,21.0107949 24.2175816,21.1676337 24.4326471,21.1676337 C24.6481475,21.1676337 25.3698891,21.0784487 25.7121672,21.1024937 C26.0527057,21.1291617 26.1674146,21.2207512 26.7423723,21.2447961 C27.4606345,21.2762732 27.9317562,21.1604202 27.9651359,21.1459932 C28.0674497,21.1048982 28.415273,20.9892637 28.8985724,21.0253312 C29.5444212,21.0736397 29.7386108,20.9625957 30.0260897,21.0107949 C30.3218319,21.0945151 30.4575254,21.0820554 30.5995252,21.0634752 C30.6383413,20.9298071 30.6695465,20.7926415 30.6893351,20.6422512 C30.7607699,20.0494336 31.0835856,19.6964098 31.1785058,19.1638139 C31.1853557,19.1314624 31.1841597,19.102062 31.1853557,19.0716779 C31.1878565,19.0621692 31.1931842,19.0546279 31.1952501,19.0445727 C31.2051444,18.994734 31.2114506,18.948065 31.2203664,18.8991007 C30.897442,18.8698095 30.4990598,18.8677329 29.9417161,18.9410701" id="Fill-3" fill="#F9CD44"></path>
                    <g id="Group-7">
                        <mask id="mask-2" fill="white">
                            <use xlink:href="#path-1"></use>
                        </mask>
                        <g id="Clip-6"></g>
                        <path d="M0.688687991,17.8773537 C0.705867135,17.8773537 0.720871705,17.8816162 0.736963562,17.8838021 C0.765994142,17.877463 0.795894552,17.872654 0.828404452,17.872654 C1.47968975,17.872654 2.89870885,18.0822823 3.27110486,18.0582374 C3.64350088,18.0341924 4.67207499,17.812323 4.99880492,17.812323 C5.32325155,17.812323 6.89536075,18.1547451 7.57176239,18.0582374 C8.24348869,17.9594344 8.43561242,18.0124426 8.9016239,18.0124426 C9.36567827,18.0124426 10.1037291,18.0822823 10.5448417,18.1088411 C10.9880202,18.1331046 11.3833579,17.8243455 11.9615775,17.9063169 C12.5396883,17.9906929 12.8527185,17.872654 13.2503395,17.872654 C13.2691496,17.872654 13.2853502,17.8768072 13.303073,17.8787745 C13.3061174,17.8786652 13.3088356,17.8773537 13.3119888,17.8773537 C13.8056173,17.8773537 14.2261802,17.8942944 14.7127414,17.9208532 C15.2016947,17.9448982 15.7958974,17.9642434 16.3238842,17.9642434 C16.8035955,17.9642434 17.5212054,17.8218317 18.0786578,17.8966989 C18.6362189,17.9690524 19.4450521,18.0004202 19.769825,18.0124426 C20.1765793,18.0268696 21.0426039,17.9932067 21.4148912,18.0582374 C21.8904708,18.1402088 22.7152872,18.0196561 23.0169008,17.9208532 C23.3207977,17.8218317 23.5286871,17.9594344 24.1868223,17.9352802 C24.5774847,17.9208532 25.1990871,17.872654 25.781982,17.872654 C25.8115562,17.872654 25.8390646,17.877463 25.866138,17.8832556 C25.8969083,17.877463 25.9286571,17.872654 25.9627979,17.872654 C26.6355028,17.872654 27.7324673,18.0293834 28.0005924,18.0293834 C28.2688262,18.0293834 29.1679044,17.9400892 29.5943386,17.9642434 C30.018707,17.9906929 30.1613591,18.0822823 30.8782079,18.1065459 C31.0432581,18.1123385 31.19363,18.1119014 31.3360647,18.109169 C31.371619,17.7672933 31.3901029,17.4266199 31.3945607,17.06059 C31.4070646,16.3660184 31.3800998,15.526412 31.3245394,14.7827669 C31.2738718,14.1064477 31.3350861,13.0557921 31.0428232,12.3064636 C30.7541483,11.5564793 30.3349989,10.4850576 30.1433101,10.0630685 C29.9041069,9.53386072 29.3875365,8.39565959 29.0274268,7.9849279 C28.56957,7.46009193 28.009182,6.38965389 27.8342374,5.94689868 C27.6571182,5.50152038 27.3092949,5.38402795 26.6159316,4.66584861 C26.2042845,4.23915981 25.5415827,3.57060054 24.8363679,3.07265121 C24.8004874,3.0472947 24.7630847,3.03002604 24.725682,3.01417823 C24.6929547,2.98138964 24.6585964,2.94903824 24.6161921,2.92018428 C24.3013136,2.70596552 23.8837952,2.50038108 23.4684513,2.31949738 C21.1293694,0.867728076 18.3742913,0.0282309728 15.4232839,0.0282309728 C11.9114535,0.0282309728 8.67753392,1.2173637 6.09196391,3.21320495 C5.67031377,3.43015609 5.23985659,3.69618082 4.90377598,4.00767239 C4.71263081,4.18494935 4.56084546,4.35260832 4.44320094,4.5129445 C4.32425167,4.5942602 4.20791189,4.69120512 4.09787838,4.80826037 C3.74809795,5.18073871 3.65513486,5.39036707 3.53455466,5.70721411 C1.37955056,8.36243383 0.0857869947,11.7518993 0.0857869947,15.4458614 C0.0857869947,16.2701665 0.155482132,17.0774215 0.279976567,17.8663148 C0.401644054,17.8728726 0.534293146,17.8773537 0.688687991,17.8773537" id="Fill-5" fill="#F9CD44" mask="url(#mask-2)"></path>
                    </g>
                    <path d="M27.0923593,24.7211185 C27.0751801,24.7214464 27.0598494,24.7174025 27.0436488,24.7155445 C27.0203808,24.7223208 26.9960256,24.727567 26.9696045,24.7281134 C26.4469453,24.7372942 25.3045322,24.5475576 25.0060718,24.5767395 C24.7072851,24.6061399 23.885948,24.8425456 23.623803,24.847136 C23.3635063,24.8517264 22.0957289,24.5313819 21.5546946,24.6373984 C21.017357,24.7458193 20.8623098,24.6954342 20.4882829,24.7018826 C20.1158869,24.7084403 19.5224453,24.6488744 19.1678808,24.6286547 C18.8117941,24.6107303 18.5000687,24.9249543 18.0347096,24.8510706 C17.5692418,24.7747825 17.3200354,24.8974118 17.0009165,24.9030952 C16.9859119,24.9032045 16.9725383,24.8992699 16.9582948,24.8975211 C16.9559028,24.8977397 16.9537282,24.8990513 16.9511187,24.8990513 C16.5552373,24.9060462 16.2175258,24.8951166 15.8264284,24.8754435 C15.4334826,24.8581748 14.9564896,24.8472453 14.5328823,24.8546774 C14.1476563,24.861563 13.5743295,25.0138113 13.1254972,24.9469226 C12.676991,24.8824384 12.0272279,24.8625466 11.7663876,24.8550053 C11.4397664,24.8462617 10.7454245,24.8921657 10.4453331,24.8322719 C10.0624992,24.7570767 9.4026243,24.8892147 9.162225,24.9922802 C8.92008605,25.0954549 8.75101282,24.9609124 8.22302594,24.9943568 C7.90977837,25.0143578 7.41180063,25.0713006 6.94415822,25.0794978 C6.92056408,25.0800443 6.89827468,25.0754539 6.8764202,25.0700984 C6.85173877,25.0763282 6.8265137,25.0816837 6.79889659,25.0821209 C6.25927574,25.0915203 5.37618071,24.9502015 5.16089776,24.9540268 C4.94561481,24.9577428 4.22572166,25.0597153 3.8830086,25.041463 C3.5753062,25.0229921 3.44700626,24.9486713 3.00219688,24.9238613 C3.39644738,25.4935083 3.79156771,25.9544066 4.27758528,26.4410985 C4.88266086,26.4237205 5.63125839,26.4074355 5.84871592,26.4112609 C6.18425289,26.4171628 7.38320497,26.6095225 8.08167855,26.5228514 C8.78015213,26.4385847 9.45677122,26.6434041 9.9348516,26.5988116 C10.5310114,26.5441639 10.8489343,26.6147687 11.3042904,26.6469015 C11.7596464,26.6790343 12.4654049,26.4574928 12.8486737,26.5606675 C13.2318339,26.6661375 13.4511398,26.5566236 13.9894559,26.5661323 C14.0075049,26.5665695 14.0230531,26.5711599 14.0397974,26.5740016 C14.0523012,26.5731272 14.0638264,26.5699576 14.0768739,26.5701762 C14.6721638,26.5805593 15.0795705,26.510501 15.5846156,26.5435082 C16.0873774,26.5764061 16.5197917,26.7070139 17.0012427,26.5925818 C17.4829111,26.4804448 18.4088453,26.6267912 18.9834768,26.7117136 C19.5588694,26.7965268 20.1969985,26.7740119 20.651376,26.7313868 C21.5644802,26.6533499 23.7453617,26.9085544 24.0588268,26.8152163 C24.3746838,26.7242826 25.369552,26.8357638 25.7263998,26.8421029 C26.0544345,26.8477863 26.2498201,26.7849415 26.8677256,26.7866902 C26.9789552,26.7019863 27.048759,26.6517105 27.0651771,26.6430762 C27.2413177,26.546022 27.827257,26.1807571 28.3247998,25.4309914 C28.4422269,25.2539331 28.547585,25.1022312 28.6433751,24.967798 C28.3792729,24.8695415 28.1500727,24.7025383 27.0923593,24.7211185" id="Fill-8" fill="#F9CD44"></path>
                    <path d="M19.9661674,30.2797566 C19.2700858,30.3664278 19.0725256,30.3100314 18.5908572,30.3016157 C18.1113634,30.2930907 17.3498271,30.209917 16.894471,30.1752704 C16.4368317,30.1431375 16.0226838,30.4445739 15.4267415,30.3522194 C14.8306904,30.2572418 14.5048303,30.3699253 14.094053,30.3624932 C14.0743731,30.3621653 14.0574114,30.3575749 14.0389275,30.3552797 C14.0358831,30.3554983 14.0333824,30.3564819 14.0302292,30.3564819 C13.5201826,30.347629 13.0859199,30.3231469 12.5834843,30.2878445 C12.0783305,30.254728 11.4646653,30.2246718 10.9189556,30.2151631 C10.6127754,30.209917 10.211675,30.2569139 9.81405394,30.2738547 C10.1019677,30.3814013 10.351174,30.4715699 10.5131799,30.5243595 C11.0612816,30.7039317 12.2257667,31.0853722 12.7553845,31.0946623 C13.4309163,31.1082149 14.5408195,31.4180671 14.9575768,31.5906443 C15.3770524,31.7634402 15.6780136,31.5852889 16.6061224,31.5768731 C17.1571597,31.5719548 18.0427555,31.5575279 18.8564816,31.3986125 C18.898016,31.3903061 18.9347663,31.3757698 18.9704293,31.3600313 C19.0152256,31.3593755 19.0606742,31.3572989 19.1089498,31.3470251 C19.8663544,31.1859239 20.9273296,30.6713617 21.4918494,30.4021674 C20.9412469,30.3151683 20.3303,30.2360385 19.9661674,30.2797566" id="Fill-10" fill="#F9CD44"></path>
                    <path d="M24.3809357,27.7278647 C23.9953835,27.7451334 22.9289718,27.9485319 22.5910428,27.9425206 C22.2557233,27.9366187 20.636752,27.5656705 19.9357777,27.6498279 C19.2399136,27.7366083 19.0425709,27.6801027 18.560685,27.6715776 C18.0812999,27.6631619 17.3196549,27.5798789 16.8642988,27.5453416 C16.406442,27.5132088 15.9926203,27.8146452 15.3963518,27.7221813 C14.8004094,27.627313 14.474658,27.7396686 14.0638808,27.7325644 C14.0440921,27.7323458 14.0272392,27.7277554 14.0089727,27.7254602 C14.0059283,27.7255695 14.0034276,27.7266624 14.0001657,27.7265532 C13.4899016,27.7175909 13.0557477,27.6932181 12.5530946,27.6578064 C12.0481582,27.6247992 11.4342756,27.5948523 10.8887834,27.585125 C10.3928715,27.5766 9.64873186,27.705787 9.07399161,27.6208646 C8.49870772,27.538456 7.66334463,27.4923334 7.32824258,27.4744089 C6.90800591,27.4525499 6.01240708,27.4706929 5.62848581,27.3988859 C5.52008323,27.3788848 5.39243566,27.369704 5.25815564,27.3665345 C5.55868194,27.6338707 5.86801528,27.8970538 6.16245277,28.1344432 C6.51016736,28.4147856 6.9382325,28.826173 7.39717661,29.168158 C7.65551616,29.1791968 7.90559231,29.1783225 8.11195951,29.1527474 C8.81021563,29.0686993 9.48716091,29.2733001 9.96524129,29.2287076 C10.5614011,29.1740599 10.8791065,29.244774 11.3345713,29.2767975 C11.7898187,29.3089303 12.4954684,29.0872795 12.878846,29.1905635 C13.2620061,29.2961428 13.4812033,29.1866289 14.0198456,29.1961376 C14.0376771,29.1965748 14.0531166,29.2010559 14.0697521,29.2038976 C14.0824734,29.2031325 14.0938899,29.1998536 14.1071548,29.2000722 C14.7022273,29.2104553 15.1099602,29.1405063 15.6147879,29.1735135 C16.1175497,29.2064113 16.549964,29.3370192 17.0314149,29.2223685 C17.5130834,29.1103408 18.4389088,29.2567965 19.0138665,29.3416096 C19.5888242,29.4265321 20.2269533,29.4039079 20.6815483,29.3612828 C21.388394,29.3009518 22.8517744,29.4396475 23.6236399,29.4623809 C23.7199736,29.409482 23.8078264,29.3573481 23.8803485,29.3071816 C24.3866983,28.9526277 24.4945573,28.7422343 25.2944748,28.0644942 C25.388199,27.9851458 25.478009,27.9095135 25.5660793,27.8356298 C25.0559239,27.7760639 24.5775173,27.7190118 24.3809357,27.7278647" id="Fill-12" fill="#F9CD44"></path>
                </g>
            </g>
        </g>
    </g>
</svg>