<?xml version="1.0" standalone="no"?>
<!DOCTYPE svg PUBLIC "-//W3C//DTD SVG 20010904//EN"
 "http://www.w3.org/TR/2001/REC-SVG-20010904/DTD/svg10.dtd">
<svg version="1.0" xmlns="http://www.w3.org/2000/svg"
 width="320.000000pt" height="320.000000pt" viewBox="0 0 320.000000 320.000000"
 preserveAspectRatio="xMidYMid meet">
<metadata>
Created by potrace 1.11, written by Peter Selinger 2001-2013
</metadata>
<g transform="translate(0.000000,320.000000) scale(0.100000,-0.100000)"
fill="#000000" stroke="none">
<path d="M1400 3189 c-140 -13 -288 -48 -408 -95 -246 -98 -551 -311 -627
-437 -11 -19 -50 -79 -87 -133 -69 -103 -131 -220 -167 -314 -26 -66 -68 -219
-77 -275 -3 -22 -10 -60 -14 -85 -9 -43 -6 -374 3 -415 3 -16 13 -20 43 -21
47 -1 211 -15 233 -19 9 -2 50 3 91 10 76 13 124 13 220 0 30 -5 159 -7 285
-6 326 4 1002 4 1185 2 85 -2 200 0 255 3 134 7 354 8 385 1 14 -3 57 -5 95
-5 121 2 158 1 237 -6 l77 -7 7 27 c6 26 -3 387 -12 462 -7 55 -16 85 -63 204
-61 151 -124 278 -165 331 -20 25 -60 89 -89 141 -46 86 -66 109 -180 216 -71
66 -143 128 -160 137 -18 9 -68 36 -112 61 -289 162 -510 225 -795 228 -52 1
-124 -2 -160 -5z"/>
<path d="M176 1303 c-1 -1 -29 -4 -62 -6 -32 -2 -59 -8 -59 -13 0 -23 48 -160
58 -166 12 -7 63 -14 182 -23 39 -3 93 -8 121 -11 29 -3 78 1 110 8 39 9 73
11 99 5 22 -4 119 -10 215 -12 96 -3 184 -6 195 -8 11 -2 36 1 55 8 25 8 122
11 330 8 505 -5 590 -6 770 -3 151 3 372 -3 505 -13 22 -2 68 3 102 10 35 7
107 11 163 9 109 -3 101 -7 115 63 4 18 16 52 26 75 36 80 50 76 -223 70 -134
-3 -263 -6 -288 -5 -48 0 -362 0 -445 0 -27 0 -189 0 -360 1 -170 1 -443 0
-605 0 -162 -1 -454 -1 -648 1 -195 2 -355 3 -356 2z"/>
<path d="M1446 992 c-4 -3 -41 -7 -84 -8 -66 -1 -116 -2 -282 -3 -68 -1 -141
0 -450 2 -184 2 -363 1 -397 -1 -83 -5 -84 -4 4 -161 20 -34 26 -39 50 -35 60
11 460 22 988 28 154 1 334 6 400 10 106 6 302 8 450 5 70 -2 527 10 602 15
34 3 79 12 100 21 21 9 59 15 86 14 45 -3 49 -1 68 31 49 79 53 76 -95 77 -72
0 -167 1 -211 2 -44 1 -323 2 -620 1 -297 0 -554 1 -572 4 -17 2 -34 2 -37 -2z"/>
<path d="M1872 725 c-15 -9 -255 -15 -537 -14 -297 1 -387 -1 -475 -9 -52 -4
-144 -7 -205 -5 -159 5 -154 5 -230 2 -39 -1 -80 1 -93 5 -13 4 -22 3 -22 -3
0 -10 92 -125 109 -135 5 -4 74 -8 153 -11 428 -14 557 -17 598 -15 41 2 326
3 475 1 33 0 72 1 86 3 14 1 57 -1 95 -6 68 -9 357 -17 686 -19 111 0 174 3
189 11 49 27 159 146 159 174 0 25 -345 43 -440 23 -42 -8 -78 -10 -100 -5
-52 12 -428 15 -448 3z"/>
<path d="M591 408 c153 -131 134 -122 266 -125 183 -5 345 -7 383 -4 31 2 216
4 280 3 14 0 104 -3 200 -7 96 -4 261 -8 365 -10 105 -3 210 -6 235 -8 50 -4
65 5 175 107 55 51 58 55 35 57 -91 5 -120 5 -184 -5 -82 -13 -87 -13 -183 3
-39 7 -154 14 -255 16 -101 2 -193 6 -204 8 -12 3 -41 1 -65 -4 -24 -6 -93
-10 -154 -10 -210 1 -580 10 -640 16 -33 3 -118 7 -188 10 l-128 5 62 -52z"/>
<path d="M996 170 c18 -16 210 -71 269 -77 33 -3 101 -17 150 -30 50 -14 108
-25 130 -25 72 0 296 11 303 16 4 2 23 7 42 10 51 8 86 19 173 56 54 23 74 36
64 41 -13 8 -341 12 -672 9 -82 -1 -222 1 -309 4 -87 2 -155 1 -150 -4z"/>
</g>
</svg>
